<svg width="38" height="46" viewBox="0 0 38 46" fill="none" xmlns="http://www.w3.org/2000/svg">
<path d="M4.36432 4.3773C9.5615 -0.237764 28.7261 -0.0123615 33.5985 4.3773C38.6332 9.49082 37.6054 37.3049 33.5985 41.7953C28.5636 46.7841 7.68269 45.2874 4.36432 41.7953C-0.508104 37.5543 0.28261 9.11672 4.36432 4.3773Z" fill="#006E51"/>
<path fillRule="evenodd" clipRule="evenodd" d="M27.9217 0.899971C30.5292 1.47611 32.8516 2.35845 34.2678 3.63435L34.2901 3.65438L34.3111 3.67571C35.089 4.46585 35.6842 5.61768 36.151 6.93514C36.6234 8.26867 36.9927 9.85502 37.2732 11.5901C37.8343 15.0613 38.0538 19.2195 37.989 23.3357C37.9241 27.4534 37.574 31.5647 36.9819 34.9459C36.6861 36.6356 36.3264 38.1625 35.9037 39.4254C35.4892 40.6638 34.9829 41.7458 34.3446 42.4611L34.3242 42.484L34.3023 42.5056C32.8204 43.974 30.3167 44.8594 27.5565 45.3741C24.7499 45.8974 21.4893 46.0702 18.3079 45.9752C15.1251 45.8801 11.9829 45.5158 9.40816 44.9465C8.12153 44.662 6.95632 44.3218 5.98995 43.9288C5.06298 43.5518 4.23303 43.0922 3.67279 42.5187C2.89135 41.8218 2.30937 40.7382 1.85896 39.5081C1.39316 38.2359 1.02752 36.6922 0.747965 34.9879C0.188448 31.5768 -0.0432806 27.415 0.00659297 23.2612C0.0564895 19.1055 0.388712 14.9211 0.971033 11.461C1.26205 9.73173 1.6187 8.16415 2.04153 6.86286C2.45673 5.58504 2.96499 4.46972 3.6066 3.72473L3.65028 3.67401L3.70033 3.62956C5.19573 2.30166 7.57479 1.40557 10.2295 0.835326C12.9179 0.257851 16.0269 -0.0138091 19.1079 0.000539574C22.1889 0.0148886 25.2762 0.315428 27.9217 0.899971ZM5.0807 5.07921C4.71355 5.52904 4.31974 6.32342 3.94363 7.48092C3.56099 8.65854 3.22427 10.1233 2.9433 11.7929C2.38164 15.1303 2.05539 19.209 2.00645 23.2852C1.95748 27.3634 2.18655 31.4023 2.72159 34.6642C2.98931 36.2963 3.32939 37.7071 3.73702 38.8204C4.15333 39.9574 4.60185 40.6763 5.02086 41.041L5.0566 41.0721L5.08924 41.1064C5.35846 41.3897 5.89227 41.73 6.74346 42.0762C7.57384 42.4139 8.6237 42.7247 9.83998 42.9936C12.271 43.5312 15.286 43.884 18.3676 43.9761C21.4505 44.0681 24.5616 43.898 27.1899 43.4079C29.8452 42.9129 31.8301 42.1225 32.8719 41.1072C33.2302 40.6945 33.6251 39.9319 34.0071 38.7906C34.3879 37.6529 34.7266 36.2302 35.0119 34.6009C35.5822 31.3443 35.9256 27.3405 35.9892 23.3042C36.0529 19.2665 35.8358 15.2316 35.2988 11.9092C35.0302 10.2475 34.6852 8.78685 34.2658 7.603C33.8467 6.42009 33.3801 5.59092 32.9064 5.09988C31.881 4.18962 29.9902 3.40525 27.4902 2.85287C25.0096 2.30478 22.0673 2.01434 19.0986 2.00052C16.1297 1.98669 13.1685 2.24965 10.6496 2.79072C8.13688 3.33045 6.19312 4.12026 5.0807 5.07921Z" fill="#006E51"/>
<path d="M12.0041 15.3977L16.4296 15.6764C17.2578 13.835 18.3188 12.9142 19.6128 12.9142C19.8544 12.9142 20.0183 13.024 20.1046 13.2437L20.1304 13.345C19.078 13.345 18.2498 14.0968 17.646 15.6004C19.3885 15.3301 20.6135 14.6036 21.3209 13.4211C21.597 12.948 21.735 12.5679 21.735 12.2807C21.735 11.6049 21.4934 11.2671 21.0104 11.2671C21.1139 10.9799 21.3209 10.8363 21.6315 10.8363C22.2181 10.8363 22.5114 11.2333 22.5114 12.0273C22.5114 12.8044 22.1922 13.5647 21.5538 14.308C20.6222 15.4061 19.2419 16.0481 17.413 16.2339C17.0335 17.4503 16.7229 18.9708 16.4814 20.7953C16.2398 22.6199 16.1018 23.642 16.0673 23.8616C16.7229 23.4055 17.853 22.6537 19.4576 21.6062C21.0621 20.5588 22.1059 19.8746 22.589 19.5536C23.3654 16.7999 24.3661 14.5192 25.5911 12.7115C26.8333 10.9038 28.136 10 29.499 10C29.9648 10 30.3271 10.1436 30.5859 10.4308C30.862 10.718 31 11.0897 31 11.5458C31 12.7791 30.3961 14.0377 29.1884 15.3216C27.9807 16.6056 26.2985 17.9909 24.1418 19.4776C23.3654 22.5354 22.9772 25.4919 22.9772 28.347C22.9772 30.8811 23.3482 32.7732 24.0901 34.0234C24.6767 35.0032 25.4703 35.4932 26.471 35.4932C26.3675 35.8311 26.1259 36 25.7464 36C24.5904 36 23.6587 35.5439 22.9513 34.6316C21.8816 33.2801 21.3468 31.1007 21.3468 28.0936C21.3468 25.7622 21.6573 23.3125 22.2785 20.7446C18.3792 23.2788 16.2657 24.6556 15.9379 24.8752C15.4203 28.271 14.756 30.5854 13.9451 31.8187C13.1687 32.9675 12.1853 33.5419 10.9948 33.5419C10.4427 33.5419 10.0028 33.3561 9.67495 32.9844C9.34714 32.6127 9.18323 32.1144 9.18323 31.4893C9.18323 29.783 10.8482 27.6966 14.1781 25.23C14.9199 20.7531 15.5842 17.7713 16.1708 16.2846L12.3147 16.0058C10.2271 16.0058 8.73464 16.783 7.83747 18.3372C7.40614 19.1144 7.19048 19.8915 7.19048 20.6686C7.19048 21.0741 7.24224 21.4711 7.34576 21.8596C7.67357 23.0591 8.32057 23.6589 9.28675 23.6589C9.28675 23.794 9.21774 23.9207 9.07971 24.039C8.95894 24.1572 8.79503 24.2164 8.58799 24.2164C7.48378 24.2164 6.71601 23.6589 6.28468 22.5439C6.09489 22.0539 6 21.4964 6 20.8713C6 20.2463 6.18116 19.5367 6.54348 18.7427C7.25086 17.1546 8.44134 16.1241 10.1149 15.6511C10.7015 15.4821 11.3313 15.3977 12.0041 15.3977ZM30.3271 11.5205C30.3271 10.8785 30.0511 10.5575 29.499 10.5575C28.6018 10.5575 27.7046 11.2755 26.8075 12.7115C25.9275 14.1306 25.1598 15.9721 24.5041 18.2359C26.3502 16.9181 27.7823 15.7186 28.8002 14.6374C29.8181 13.5393 30.3271 12.5003 30.3271 11.5205ZM9.85611 31.5146C9.85611 32.4438 10.2184 32.9084 10.9431 32.9084C11.685 32.9084 12.2802 32.3424 12.7288 31.2105C13.1774 30.0786 13.6001 28.423 13.9969 26.2437C11.2364 28.3385 9.85611 30.0955 9.85611 31.5146Z" fill="white"/>
</svg>

